<svg width="71" height="80" viewBox="0 0 71 80" fill="none" xmlns="http://www.w3.org/2000/svg">
<path fill-rule="evenodd" clip-rule="evenodd" d="M3 3H36.3846V26.5385H3V3ZM0 0H3H36.3846H39.3846V3V26.5385V29.5385H36.3846H3H0V26.5385V3V0ZM21.0599 7.73628H25.1624V21.8022H21.0599V24.6154H32V21.8022H27.8975V7.73628H32V4.9231H21.0599V7.73628ZM15.5898 4.9231H10.1197C8.61131 4.9231 7.38464 6.18481 7.38464 7.73628V24.6154H10.1197V17.5824H15.5898V24.6154H18.3248V7.73628C18.3248 6.18481 17.0981 4.9231 15.5898 4.9231ZM10.1197 14.7693V7.73628H15.5898V14.7693H10.1197ZM52.9231 67.0769H27.077C25.9345 67.0769 24.8388 66.623 24.031 65.8152C23.2231 65.0073 22.7693 63.9117 22.7693 62.7692V56.3076H27.077V62.7692H52.9231V56.3076H57.2308V62.7692C57.2308 63.9117 56.777 65.0073 55.9691 65.8152C55.1613 66.623 54.0656 67.0769 52.9231 67.0769ZM9.8462 47.6923H70.1539V52H9.8462V47.6923ZM57.2308 43.3846H52.9231V36.923H27.077V43.3846H22.7693V36.923C22.7693 35.7806 23.2231 34.6849 24.031 33.877C24.8388 33.0692 25.9345 32.6153 27.077 32.6153H52.9231C54.0656 32.6153 55.1613 33.0692 55.9691 33.877C56.777 34.6849 57.2308 35.7806 57.2308 36.923V43.3846ZM70.1539 36.923H65.8462V24H52.9231V19.6923H70.1539V36.923ZM27.077 80H9.8462V62.7692H14.1539V75.6923H27.077V80ZM70.1539 80H52.9231V75.6923H65.8462V62.7692H70.1539V80Z" fill="#008BFF"/>
</svg>
