<svg width="70" height="63" viewBox="0 0 70 63" fill="none" xmlns="http://www.w3.org/2000/svg">
<path fill-rule="evenodd" clip-rule="evenodd" d="M46.5534 24.729V35.9678C47.4601 35.4891 48.4711 35.2328 49.5076 35.2328H62.5229C64.2488 35.2328 65.9041 35.9434 67.1245 37.2082C68.3449 38.473 69.0305 40.1884 69.0305 41.9771V55.4656V57.5954L69.0305 62.3282H43V57.5954H43.0212C43 57.2334 43 56.8621 43 56.5574V43.3842H26.4644V55.1401V57.3053L26.4643 57.3054L26.4644 62.1171H0V57.3054H0.0215614C0 56.9374 0 56.5598 0 56.25V41.4267C0 39.6082 0.69705 37.8642 1.93781 36.5783C3.17857 35.2924 4.8614 34.57 6.61609 34.57H19.8483C20.8416 34.57 21.812 34.8016 22.6921 35.2358V24.729C22.6921 23.0894 23.3206 21.5169 24.4393 20.3575C25.558 19.1981 27.0753 18.5467 28.6574 18.5467H40.5881C42.1702 18.5467 43.6875 19.1981 44.8062 20.3575C45.9249 21.5169 46.5534 23.0894 46.5534 24.729ZM27.8762 22.788C28.1254 22.6909 28.3918 22.65 28.6574 22.6683H40.5881C40.8538 22.65 41.1201 22.6909 41.3693 22.788C41.6186 22.8851 41.8449 23.0363 42.0331 23.2314C42.2214 23.4265 42.3673 23.6611 42.461 23.9193C42.5547 24.1776 42.5941 24.4537 42.5765 24.729V37.0935H38.5996H30.6459H26.669V24.729C26.6514 24.4537 26.6908 24.1776 26.7845 23.9193C26.8782 23.6611 27.0241 23.4265 27.2124 23.2314C27.4006 23.0363 27.627 22.8851 27.8762 22.788ZM30.2039 15.0968C31.5119 16.0026 33.0496 16.486 34.6228 16.486C36.7322 16.486 38.7553 15.6175 40.2469 14.0717C41.7385 12.5258 42.5765 10.4292 42.5765 8.243C42.5765 6.61269 42.11 5.01899 41.2361 3.66344C40.3621 2.30788 39.1199 1.25136 37.6665 0.627465C36.2132 0.00357158 34.6139 -0.159667 33.0711 0.158391C31.5282 0.476448 30.1109 1.26152 28.9986 2.41432C27.8862 3.56713 27.1287 5.03589 26.8218 6.63487C26.5149 8.23386 26.6724 9.89125 27.2744 11.3975C27.8764 12.9037 28.8959 14.1911 30.2039 15.0968ZM32.4133 4.8161C33.0673 4.36322 33.8362 4.1215 34.6228 4.1215C35.6775 4.1215 36.689 4.55573 37.4348 5.32866C38.1806 6.10159 38.5996 7.14991 38.5996 8.243C38.5996 9.05816 38.3664 9.85501 37.9294 10.5328C37.4924 11.2106 36.8713 11.7388 36.1446 12.0508C35.418 12.3627 34.6183 12.4443 33.8469 12.2853C33.0755 12.1263 32.3669 11.7337 31.8107 11.1573C31.2545 10.5809 30.8757 9.84656 30.7223 9.04707C30.5688 8.24757 30.6476 7.41888 30.9486 6.66577C31.2496 5.91267 31.7593 5.26898 32.4133 4.8161ZM48.6554 39.8596C48.9272 39.7537 49.2178 39.7091 49.5076 39.729H62.5229C62.8127 39.7091 63.1033 39.7537 63.3752 39.8596C63.6471 39.9656 63.894 40.1305 64.0993 40.3433C64.3047 40.5562 64.4639 40.8121 64.5661 41.0938C64.6683 41.3756 64.7113 41.6767 64.6921 41.9771V55.4656H60.3537H51.6769H47.3384V41.9771C47.3193 41.6767 47.3622 41.3756 47.4645 41.0938C47.5667 40.8121 47.7258 40.5562 47.9312 40.3433C48.1366 40.1305 48.3835 39.9656 48.6554 39.8596ZM51.1947 31.4692C52.6216 32.4573 54.2992 32.9847 56.0153 32.9847C58.3165 32.9847 60.5235 32.0373 62.1507 30.3509C63.7779 28.6645 64.6921 26.3773 64.6921 23.9924C64.6921 22.2138 64.1832 20.4753 63.2298 18.9965C62.2764 17.5177 60.9212 16.3651 59.3358 15.6845C57.7503 15.0039 56.0056 14.8258 54.3225 15.1728C52.6394 15.5198 51.0933 16.3762 49.8798 17.6338C48.6663 18.8914 47.84 20.4937 47.5052 22.238C47.1704 23.9824 47.3422 25.7905 47.9989 27.4336C48.6556 29.0767 49.7678 30.4811 51.1947 31.4692ZM53.605 20.2539C54.3184 19.7599 55.1572 19.4962 56.0153 19.4962C57.1659 19.4962 58.2694 19.9699 59.083 20.8131C59.8966 21.6563 60.3537 22.7999 60.3537 23.9924C60.3537 24.8816 60.0993 25.7509 59.6225 26.4903C59.1458 27.2297 58.4683 27.806 57.6755 28.1463C56.8828 28.4866 56.0105 28.5756 55.1689 28.4022C54.3273 28.2287 53.5543 27.8004 52.9475 27.1716C52.3408 26.5428 51.9276 25.7417 51.7602 24.8695C51.5928 23.9974 51.6787 23.0933 52.0071 22.2718C52.3355 21.4502 52.8915 20.748 53.605 20.2539ZM6.61609 39.1412C6.32144 39.1209 6.02602 39.1662 5.74961 39.2739C5.47321 39.3817 5.2222 39.5493 5.01339 39.7657C4.80458 39.9821 4.64279 40.2423 4.53886 40.5287C4.43492 40.8152 4.39124 41.1213 4.41073 41.4267V55.1401H8.82146H17.6429H22.0536V41.4267C22.0731 41.1213 22.0295 40.8152 21.9255 40.5287C21.8216 40.2423 21.6598 39.9821 21.451 39.7657C21.2422 39.5493 20.9912 39.3817 20.7148 39.2739C20.4384 39.1662 20.1429 39.1209 19.8483 39.1412H6.61609ZM13.2322 32.2845C11.4875 32.2845 9.78193 31.7483 8.33125 30.7437C6.88057 29.7392 5.7499 28.3113 5.08222 26.6408C4.41455 24.9703 4.23985 23.1321 4.58023 21.3587C4.92061 19.5853 5.76077 17.9563 6.99447 16.6777C8.22818 15.3991 9.80001 14.5284 11.5112 14.1757C13.2224 13.8229 14.9961 14.004 16.608 14.6959C18.2199 15.3879 19.5976 16.5597 20.567 18.0631C21.5363 19.5665 22.0536 21.3341 22.0536 23.1422C22.0536 25.5669 21.1242 27.8923 19.4699 29.6068C17.8155 31.3213 15.5718 32.2845 13.2322 32.2845ZM13.2322 18.5711C12.3598 18.5711 11.5071 18.8392 10.7817 19.3415C10.0564 19.8438 9.49104 20.5577 9.1572 21.3929C8.82337 22.2282 8.73602 23.1473 8.90621 24.034C9.0764 24.9207 9.49648 25.7352 10.1133 26.3745C10.7302 27.0138 11.5161 27.4491 12.3717 27.6255C13.2273 27.8019 14.1141 27.7114 14.9201 27.3654C15.7261 27.0194 16.4149 26.4335 16.8996 25.6818C17.3842 24.9301 17.6429 24.0463 17.6429 23.1422C17.6429 21.9299 17.1782 20.7672 16.351 19.91C15.5239 19.0527 14.402 18.5711 13.2322 18.5711Z" fill="#008BFF"/>
</svg>
