<svg width="70" height="73" viewBox="0 0 70 73" fill="none" xmlns="http://www.w3.org/2000/svg">
<path fill-rule="evenodd" clip-rule="evenodd" d="M36.8393 2.98213C37.9295 2.98121 39.009 3.19703 40.0144 3.61694C41.0198 4.03685 41.9309 4.65239 42.6942 5.42747C44.2672 7.01751 45.1488 9.15984 45.1488 11.3917C45.1488 13.6236 44.2672 15.7659 42.6942 17.356L27.1808 32.9972L11.6675 17.356C10.0945 15.7659 9.21286 13.6236 9.21286 11.3917C9.21286 9.15984 10.0945 7.01751 11.6675 5.42747C12.4313 4.65294 13.3425 4.03773 14.3477 3.61776C15.353 3.19779 16.4323 2.98149 17.5224 2.98149C18.6126 2.98149 19.6918 3.19779 20.6971 3.61776C21.7024 4.03773 22.6135 4.65294 23.3774 5.42747L27.1808 9.30424L30.9693 5.45729C31.7304 4.67297 32.6425 4.04952 33.6511 3.62424C34.6596 3.19895 35.744 2.98056 36.8393 2.98213ZM36.8393 4.0003e-06C35.3503 -0.00125255 33.876 0.293528 32.5029 0.86706C31.1298 1.44059 29.8855 2.28133 28.843 3.33998L27.1808 5.00998L25.5187 3.33998C24.4749 2.28324 23.2303 1.44396 21.8575 0.871069C20.4846 0.298174 19.011 0.0031274 17.5224 0.0031274C16.0339 0.0031274 14.5602 0.298174 13.1874 0.871069C11.8145 1.44396 10.5699 2.28324 9.52614 3.33998C7.4026 5.49252 6.21277 8.38926 6.21277 11.4066C6.21277 14.424 7.4026 17.3208 9.52614 19.4733L27.1808 37.2766L44.8356 19.4733C46.9591 17.3208 48.1489 14.424 48.1489 11.4066C48.1489 8.38926 46.9591 5.49252 44.8356 3.33998C43.7915 2.28335 42.547 1.44393 41.1742 0.870543C39.8014 0.297155 38.3279 0.00123996 36.8393 4.0003e-06ZM59.9088 23.2979C55.2709 23.2979 51.3968 26.4554 50.2785 30.6984H43.4688C42.1359 30.6984 40.8828 31.2115 39.9392 32.1439L30.9878 40.99L34.5175 44.4781L43.4688 35.632H50.2785C51.3943 39.875 55.2709 43.0325 59.9088 43.0325C65.4154 43.0325 69.8936 38.607 69.8936 33.1652C69.8936 27.7234 65.4154 23.2979 59.9088 23.2979ZM59.9088 38.0989C57.1555 38.0989 54.9164 35.8861 54.9164 33.1652C54.9164 30.4443 57.1555 28.2315 59.9088 28.2315C62.6621 28.2315 64.9012 30.4467 64.9012 33.1652C64.9012 35.8836 62.6621 38.0989 59.9088 38.0989ZM20.3989 51.4543L11.4476 60.3004H0V65.234H11.4476C12.7805 65.234 14.0336 64.7209 14.9772 63.7884L23.9286 54.9424L20.3989 51.4543ZM50.2785 60.6658C51.3968 56.4229 55.2709 53.2654 59.9088 53.2654C65.4154 53.2654 69.8936 57.6908 69.8936 63.1327C69.8936 68.5745 65.4154 73 59.9088 73C55.2709 73 51.3943 69.8425 50.2785 65.5995H43.4688C42.1359 65.5995 40.8828 65.0864 39.9392 64.1539L11.4476 35.9975H0V31.0639H11.4476C12.7715 31.0641 14.0412 31.5841 14.9772 32.5094L43.4688 60.6658H50.2785ZM54.9164 63.1327C54.9164 65.8536 57.1555 68.0663 59.9088 68.0663C62.6621 68.0663 64.9012 65.8511 64.9012 63.1327C64.9012 60.4142 62.6621 58.199 59.9088 58.199C57.1555 58.199 54.9164 60.4118 54.9164 63.1327Z" fill="#008BFF"/>
</svg>
