<svg width="77" height="66" viewBox="0 0 77 66" fill="none" xmlns="http://www.w3.org/2000/svg">
<path fill-rule="evenodd" clip-rule="evenodd" d="M10.21 0H71.4696C72.8236 0 74.122 0.537844 75.0794 1.49521C76.0368 2.45258 76.5746 3.75105 76.5746 5.10497V51.0497C76.5746 52.4037 76.0368 53.7021 75.0794 54.6595C74.122 55.6169 72.8236 56.1547 71.4696 56.1547H38.2873V5.10497H10.21V30.6298H5.10498V5.10497C5.10498 3.75105 5.64283 2.45258 6.60019 1.49521C7.55756 0.537844 8.85603 0 10.21 0ZM43.3923 5.10497V51.0497H71.4747L71.4696 5.10497H43.3923ZM66.3646 12.7624H48.4972V17.8674H66.3646V12.7624ZM66.3646 25.5249H48.4972V30.6298H66.3646V25.5249ZM66.3646 38.2873H48.4972V43.3923H66.3646V38.2873ZM31.6607 49.4501V47.5319L34.133 45.4256C34.5888 45.0345 34.8879 44.4991 34.9774 43.914C35.0669 43.329 34.9412 42.732 34.6224 42.2285L31.5834 37.2135C31.3576 36.8327 31.0329 36.5164 30.6419 36.2964C30.2509 36.0763 29.8073 35.9602 29.3557 35.9598C29.0758 35.9577 28.7975 36 28.5316 36.0852L25.4025 37.1132C24.863 36.7625 24.2994 36.4484 23.7156 36.1729L23.0589 33.0135C22.9411 32.4363 22.6186 31.9177 22.1478 31.5487C21.677 31.1797 21.0878 30.9837 20.4835 30.9949H14.4571C13.8528 30.9837 13.2637 31.1797 12.7928 31.5487C12.322 31.9177 11.9995 32.4363 11.8817 33.0135L11.225 36.1729C10.6378 36.4496 10.07 36.7637 9.52526 37.1132L6.46056 36.035C6.19181 35.9668 5.91351 35.9414 5.63644 35.9598C5.18481 35.9602 4.74125 36.0763 4.35024 36.2964C3.95924 36.5164 3.63454 36.8327 3.40873 37.2135L0.369782 42.2285C0.069218 42.7312 -0.0424703 43.3201 0.0538459 43.8942C0.150162 44.4683 0.44849 44.9919 0.897735 45.3754L3.33147 47.5444V49.4626L0.897735 51.5689C0.4358 51.9551 0.129312 52.4881 0.0326625 53.0733C-0.0639874 53.6586 0.0554511 54.2583 0.369782 54.766L3.40873 59.781C3.63454 60.1618 3.95924 60.4781 4.35024 60.6981C4.74125 60.9182 5.18481 61.0343 5.63644 61.0347C5.91632 61.0368 6.19467 60.9944 6.46056 60.9093L9.58965 59.8813C10.1292 60.2319 10.6928 60.5461 11.2765 60.8216L11.9332 63.981C12.051 64.5582 12.3735 65.0767 12.8443 65.4458C13.3152 65.8148 13.9043 66.0108 14.5086 65.9995H20.5865C21.1908 66.0108 21.78 65.8148 22.2508 65.4458C22.7216 65.0767 23.0442 64.5582 23.1619 63.981L23.8186 60.8216C24.4059 60.5449 24.9737 60.2308 25.5184 59.8813L28.6346 60.9093C28.9005 60.9944 29.1788 61.0368 29.4587 61.0347C29.9103 61.0343 30.3539 60.9182 30.7449 60.6981C31.1359 60.4781 31.4606 60.1618 31.6864 59.781L34.6224 54.766C34.9229 54.2632 35.0346 53.6744 34.9383 53.1003C34.842 52.5262 34.5436 52.0026 34.0944 51.6191L31.6607 49.4501ZM29.3557 58.5272L24.9389 57.0729C23.9044 57.9247 22.7229 58.5911 21.4493 59.0413L20.535 63.5422H14.4571L13.5429 59.0914C12.2793 58.6286 11.1042 57.9633 10.0661 57.123L5.63644 58.5272L2.59749 53.5122L6.10001 50.5032C5.86191 49.2054 5.86191 47.8768 6.10001 46.579L2.59749 43.4823L5.63644 38.4673L10.0532 39.9216C11.0878 39.0698 12.2693 38.4034 13.5429 37.9532L14.4571 33.4523H20.535L21.4493 37.9031C22.7128 38.3658 23.888 39.0312 24.926 39.8715L29.3557 38.4673L32.3946 43.4823L28.8921 46.4912C29.1302 47.7891 29.1302 49.1177 28.8921 50.4155L32.3946 53.5122L29.3557 58.5272ZM12.6406 55.7733C14.0798 56.7349 15.7717 57.2482 17.5025 57.2482C18.655 57.2599 19.7982 57.0415 20.8653 56.6059C21.9323 56.1702 22.9017 55.5261 23.7166 54.7111C24.5316 53.8961 25.1757 52.9268 25.6114 51.8597C26.047 50.7927 26.2654 49.6495 26.2537 48.497C26.2537 46.7662 25.7404 45.0742 24.7789 43.6351C23.8173 42.196 22.4505 41.0743 20.8515 40.412C19.2524 39.7496 17.4928 39.5763 15.7953 39.914C14.0977 40.2517 12.5384 41.0851 11.3145 42.309C10.0907 43.5329 9.25719 45.0922 8.91953 46.7897C8.58186 48.4873 8.75516 50.2469 9.41752 51.8459C10.0799 53.445 11.2015 54.8117 12.6406 55.7733ZM15.2488 43.0704C15.9648 42.7836 16.7315 42.6449 17.5025 42.6629C18.2736 42.6449 19.0403 42.7836 19.7562 43.0704C20.4722 43.3572 21.1225 43.7863 21.6679 44.3317C22.2132 44.877 22.6423 45.5274 22.9291 46.2433C23.216 46.9593 23.3546 47.726 23.3366 48.497C23.3546 49.2681 23.216 50.0348 22.9291 50.7507C22.6423 51.4666 22.2132 52.117 21.6679 52.6623C21.1225 53.2077 20.4722 53.6368 19.7562 53.9236C19.0403 54.2104 18.2736 54.3491 17.5025 54.3311C16.7315 54.3491 15.9648 54.2104 15.2488 53.9236C14.5329 53.6368 13.8826 53.2077 13.3372 52.6623C12.7918 52.117 12.3628 51.4666 12.0759 50.7507C11.7891 50.0348 11.6505 49.2681 11.6684 48.497C11.6505 47.726 11.7891 46.9593 12.0759 46.2433C12.3628 45.5274 12.7918 44.877 13.3372 44.3317C13.8826 43.7863 14.5329 43.3572 15.2488 43.0704Z" fill="#3D89F7"/>
</svg>
